<mxfile host="app.diagrams.net" modified="2020-11-10T13:52:58.592Z" agent="5.0 (Windows NT 10.0; Win64; x64) AppleWebKit/537.36 (KHTML, like Gecko) Chrome/86.0.4240.183 Safari/537.36" etag="FX2v9AE5u3ZIaDihytVs" version="13.9.2" type="github">
  <diagram id="H9hk8JBSYsyabYd4rbT7" name="Page-1">
    <mxGraphModel dx="1038" dy="548" grid="1" gridSize="10" guides="1" tooltips="1" connect="1" arrows="1" fold="1" page="1" pageScale="1" pageWidth="827" pageHeight="1169" math="0" shadow="0">
      <root>
        <mxCell id="0" />
        <mxCell id="1" parent="0" />
        <mxCell id="HUZStoSi5ojUT_41GpKt-1" style="edgeStyle=orthogonalEdgeStyle;rounded=0;orthogonalLoop=1;jettySize=auto;html=1;" parent="1" source="HUZStoSi5ojUT_41GpKt-3" target="HUZStoSi5ojUT_41GpKt-8" edge="1">
          <mxGeometry relative="1" as="geometry" />
        </mxCell>
        <mxCell id="HUZStoSi5ojUT_41GpKt-2" style="edgeStyle=orthogonalEdgeStyle;rounded=0;orthogonalLoop=1;jettySize=auto;html=1;entryX=0.5;entryY=0;entryDx=0;entryDy=0;" parent="1" source="HUZStoSi5ojUT_41GpKt-3" target="HUZStoSi5ojUT_41GpKt-5" edge="1">
          <mxGeometry relative="1" as="geometry" />
        </mxCell>
        <mxCell id="HUZStoSi5ojUT_41GpKt-3" value="Tedarikçi Var mı?" style="rhombus;whiteSpace=wrap;html=1;" parent="1" vertex="1">
          <mxGeometry x="300" y="310" width="107" height="100" as="geometry" />
        </mxCell>
        <mxCell id="HUZStoSi5ojUT_41GpKt-4" style="edgeStyle=orthogonalEdgeStyle;rounded=0;orthogonalLoop=1;jettySize=auto;html=1;entryX=0;entryY=0.5;entryDx=0;entryDy=0;" parent="1" source="HUZStoSi5ojUT_41GpKt-5" target="HUZStoSi5ojUT_41GpKt-10" edge="1">
          <mxGeometry relative="1" as="geometry">
            <mxPoint x="450" y="500" as="targetPoint" />
          </mxGeometry>
        </mxCell>
        <mxCell id="HUZStoSi5ojUT_41GpKt-5" value="Tedarikçi Oluştur" style="shape=parallelogram;perimeter=parallelogramPerimeter;whiteSpace=wrap;html=1;fixedSize=1;" parent="1" vertex="1">
          <mxGeometry x="293.5" y="470" width="120" height="60" as="geometry" />
        </mxCell>
        <mxCell id="HUZStoSi5ojUT_41GpKt-6" style="edgeStyle=orthogonalEdgeStyle;rounded=0;orthogonalLoop=1;jettySize=auto;html=1;entryX=0.5;entryY=0;entryDx=0;entryDy=0;" parent="1" source="HUZStoSi5ojUT_41GpKt-8" target="HUZStoSi5ojUT_41GpKt-10" edge="1">
          <mxGeometry relative="1" as="geometry" />
        </mxCell>
        <mxCell id="HUZStoSi5ojUT_41GpKt-7" style="edgeStyle=orthogonalEdgeStyle;rounded=0;orthogonalLoop=1;jettySize=auto;html=1;entryX=0;entryY=0.5;entryDx=0;entryDy=0;" parent="1" source="HUZStoSi5ojUT_41GpKt-8" target="HUZStoSi5ojUT_41GpKt-12" edge="1">
          <mxGeometry relative="1" as="geometry" />
        </mxCell>
        <mxCell id="HUZStoSi5ojUT_41GpKt-8" value="Yetkili Var Mı?" style="rhombus;whiteSpace=wrap;html=1;" parent="1" vertex="1">
          <mxGeometry x="483" y="310" width="107" height="100" as="geometry" />
        </mxCell>
        <mxCell id="HUZStoSi5ojUT_41GpKt-9" style="edgeStyle=orthogonalEdgeStyle;rounded=0;orthogonalLoop=1;jettySize=auto;html=1;entryX=0;entryY=0.5;entryDx=0;entryDy=0;" parent="1" source="HUZStoSi5ojUT_41GpKt-10" target="HUZStoSi5ojUT_41GpKt-12" edge="1">
          <mxGeometry relative="1" as="geometry">
            <Array as="points">
              <mxPoint x="620" y="500" />
              <mxPoint x="620" y="360" />
            </Array>
          </mxGeometry>
        </mxCell>
        <mxCell id="HUZStoSi5ojUT_41GpKt-10" value="Yetkili Oluştur" style="shape=parallelogram;perimeter=parallelogramPerimeter;whiteSpace=wrap;html=1;fixedSize=1;" parent="1" vertex="1">
          <mxGeometry x="476.5" y="470" width="120" height="60" as="geometry" />
        </mxCell>
        <mxCell id="HUZStoSi5ojUT_41GpKt-11" style="edgeStyle=orthogonalEdgeStyle;rounded=0;orthogonalLoop=1;jettySize=auto;html=1;entryX=0.5;entryY=0;entryDx=0;entryDy=0;" parent="1" source="HUZStoSi5ojUT_41GpKt-12" target="HUZStoSi5ojUT_41GpKt-14" edge="1">
          <mxGeometry relative="1" as="geometry" />
        </mxCell>
        <mxCell id="HUZStoSi5ojUT_41GpKt-12" value="Spariş Var Mı?" style="rhombus;whiteSpace=wrap;html=1;" parent="1" vertex="1">
          <mxGeometry x="653.5" y="310" width="107" height="100" as="geometry" />
        </mxCell>
        <mxCell id="HUZStoSi5ojUT_41GpKt-13" style="edgeStyle=orthogonalEdgeStyle;rounded=0;orthogonalLoop=1;jettySize=auto;html=1;" parent="1" source="HUZStoSi5ojUT_41GpKt-14" target="HUZStoSi5ojUT_41GpKt-21" edge="1">
          <mxGeometry relative="1" as="geometry" />
        </mxCell>
        <mxCell id="HUZStoSi5ojUT_41GpKt-14" value="Sipariş için&lt;br&gt;Tedarikçi seç.." style="shape=parallelogram;perimeter=parallelogramPerimeter;whiteSpace=wrap;html=1;fixedSize=1;" parent="1" vertex="1">
          <mxGeometry x="647" y="470" width="120" height="60" as="geometry" />
        </mxCell>
        <mxCell id="HUZStoSi5ojUT_41GpKt-15" style="edgeStyle=orthogonalEdgeStyle;rounded=0;orthogonalLoop=1;jettySize=auto;html=1;" parent="1" source="HUZStoSi5ojUT_41GpKt-16" target="HUZStoSi5ojUT_41GpKt-19" edge="1">
          <mxGeometry relative="1" as="geometry" />
        </mxCell>
        <mxCell id="HUZStoSi5ojUT_41GpKt-16" value="Sipariş Oluştur" style="shape=parallelogram;perimeter=parallelogramPerimeter;whiteSpace=wrap;html=1;fixedSize=1;" parent="1" vertex="1">
          <mxGeometry x="476.5" y="580" width="120" height="60" as="geometry" />
        </mxCell>
        <mxCell id="HUZStoSi5ojUT_41GpKt-17" style="edgeStyle=orthogonalEdgeStyle;rounded=0;orthogonalLoop=1;jettySize=auto;html=1;entryX=0;entryY=0.5;entryDx=0;entryDy=0;" parent="1" source="HUZStoSi5ojUT_41GpKt-19" target="HUZStoSi5ojUT_41GpKt-3" edge="1">
          <mxGeometry relative="1" as="geometry">
            <Array as="points">
              <mxPoint x="250" y="610" />
              <mxPoint x="250" y="360" />
            </Array>
          </mxGeometry>
        </mxCell>
        <mxCell id="HUZStoSi5ojUT_41GpKt-18" style="edgeStyle=orthogonalEdgeStyle;rounded=0;orthogonalLoop=1;jettySize=auto;html=1;entryX=0.5;entryY=0;entryDx=0;entryDy=0;" parent="1" source="HUZStoSi5ojUT_41GpKt-19" target="HUZStoSi5ojUT_41GpKt-33" edge="1">
          <mxGeometry relative="1" as="geometry" />
        </mxCell>
        <mxCell id="HUZStoSi5ojUT_41GpKt-19" value="Sipariş Yeterli mi?" style="rhombus;whiteSpace=wrap;html=1;" parent="1" vertex="1">
          <mxGeometry x="300" y="560" width="107" height="100" as="geometry" />
        </mxCell>
        <mxCell id="HUZStoSi5ojUT_41GpKt-20" style="edgeStyle=orthogonalEdgeStyle;rounded=0;orthogonalLoop=1;jettySize=auto;html=1;entryX=1;entryY=0.5;entryDx=0;entryDy=0;" parent="1" source="HUZStoSi5ojUT_41GpKt-21" target="HUZStoSi5ojUT_41GpKt-16" edge="1">
          <mxGeometry relative="1" as="geometry" />
        </mxCell>
        <mxCell id="HUZStoSi5ojUT_41GpKt-21" value="Yetkili Seç" style="shape=parallelogram;perimeter=parallelogramPerimeter;whiteSpace=wrap;html=1;fixedSize=1;" parent="1" vertex="1">
          <mxGeometry x="647" y="580" width="120" height="60" as="geometry" />
        </mxCell>
        <mxCell id="HUZStoSi5ojUT_41GpKt-22" value="Evet" style="text;html=1;strokeColor=none;fillColor=none;align=center;verticalAlign=middle;whiteSpace=wrap;rounded=0;" parent="1" vertex="1">
          <mxGeometry x="310" y="670" width="40" height="20" as="geometry" />
        </mxCell>
        <mxCell id="HUZStoSi5ojUT_41GpKt-23" value="Hayır" style="text;html=1;strokeColor=none;fillColor=none;align=center;verticalAlign=middle;whiteSpace=wrap;rounded=0;" parent="1" vertex="1">
          <mxGeometry x="170" y="670" width="40" height="20" as="geometry" />
        </mxCell>
        <mxCell id="HUZStoSi5ojUT_41GpKt-24" value="Hayır" style="text;html=1;strokeColor=none;fillColor=none;align=center;verticalAlign=middle;whiteSpace=wrap;rounded=0;" parent="1" vertex="1">
          <mxGeometry x="540" y="415" width="40" height="20" as="geometry" />
        </mxCell>
        <mxCell id="HUZStoSi5ojUT_41GpKt-25" value="Hayır" style="text;html=1;strokeColor=none;fillColor=none;align=center;verticalAlign=middle;whiteSpace=wrap;rounded=0;" parent="1" vertex="1">
          <mxGeometry x="360" y="415" width="40" height="20" as="geometry" />
        </mxCell>
        <mxCell id="HUZStoSi5ojUT_41GpKt-26" value="Evet" style="text;html=1;strokeColor=none;fillColor=none;align=center;verticalAlign=middle;whiteSpace=wrap;rounded=0;" parent="1" vertex="1">
          <mxGeometry x="710" y="415" width="40" height="20" as="geometry" />
        </mxCell>
        <mxCell id="HUZStoSi5ojUT_41GpKt-27" value="Evet" style="text;html=1;strokeColor=none;fillColor=none;align=center;verticalAlign=middle;whiteSpace=wrap;rounded=0;" parent="1" vertex="1">
          <mxGeometry x="596.5" y="340" width="40" height="20" as="geometry" />
        </mxCell>
        <mxCell id="HUZStoSi5ojUT_41GpKt-28" value="Evet" style="text;html=1;strokeColor=none;fillColor=none;align=center;verticalAlign=middle;whiteSpace=wrap;rounded=0;" parent="1" vertex="1">
          <mxGeometry x="420" y="340" width="40" height="20" as="geometry" />
        </mxCell>
        <mxCell id="HUZStoSi5ojUT_41GpKt-29" style="edgeStyle=orthogonalEdgeStyle;rounded=0;orthogonalLoop=1;jettySize=auto;html=1;entryX=0;entryY=0.5;entryDx=0;entryDy=0;" parent="1" source="HUZStoSi5ojUT_41GpKt-31" target="HUZStoSi5ojUT_41GpKt-44" edge="1">
          <mxGeometry relative="1" as="geometry">
            <mxPoint x="290" y="290" as="targetPoint" />
            <Array as="points">
              <mxPoint x="546" y="810" />
              <mxPoint x="220" y="810" />
              <mxPoint x="220" y="210" />
            </Array>
          </mxGeometry>
        </mxCell>
        <mxCell id="HUZStoSi5ojUT_41GpKt-30" style="edgeStyle=orthogonalEdgeStyle;rounded=0;orthogonalLoop=1;jettySize=auto;html=1;entryX=0;entryY=0.5;entryDx=0;entryDy=0;" parent="1" source="HUZStoSi5ojUT_41GpKt-31" target="HUZStoSi5ojUT_41GpKt-34" edge="1">
          <mxGeometry relative="1" as="geometry" />
        </mxCell>
        <mxCell id="HUZStoSi5ojUT_41GpKt-31" value="Yeteri Kadar İlaç&lt;br&gt;Depoya Giriş&lt;br&gt;Yaptı Mı?&amp;nbsp;" style="rhombus;whiteSpace=wrap;html=1;" parent="1" vertex="1">
          <mxGeometry x="483" y="685" width="126.5" height="110" as="geometry" />
        </mxCell>
        <mxCell id="HUZStoSi5ojUT_41GpKt-32" style="edgeStyle=orthogonalEdgeStyle;rounded=0;orthogonalLoop=1;jettySize=auto;html=1;" parent="1" source="HUZStoSi5ojUT_41GpKt-33" edge="1">
          <mxGeometry relative="1" as="geometry">
            <mxPoint x="490" y="740" as="targetPoint" />
          </mxGeometry>
        </mxCell>
        <mxCell id="HUZStoSi5ojUT_41GpKt-33" value="İlaçları Bekle&lt;br&gt;(Status)" style="shape=parallelogram;perimeter=parallelogramPerimeter;whiteSpace=wrap;html=1;fixedSize=1;" parent="1" vertex="1">
          <mxGeometry x="293.5" y="710" width="120" height="60" as="geometry" />
        </mxCell>
        <mxCell id="HUZStoSi5ojUT_41GpKt-34" value="Bitir" style="rounded=1;whiteSpace=wrap;html=1;fontSize=12;glass=0;strokeWidth=1;shadow=0;" parent="1" vertex="1">
          <mxGeometry x="647" y="720" width="120" height="40" as="geometry" />
        </mxCell>
        <mxCell id="HUZStoSi5ojUT_41GpKt-35" value="Evet" style="text;html=1;strokeColor=none;fillColor=none;align=center;verticalAlign=middle;whiteSpace=wrap;rounded=0;" parent="1" vertex="1">
          <mxGeometry x="607" y="720" width="40" height="20" as="geometry" />
        </mxCell>
        <mxCell id="HUZStoSi5ojUT_41GpKt-36" style="edgeStyle=orthogonalEdgeStyle;rounded=0;orthogonalLoop=1;jettySize=auto;html=1;entryX=1;entryY=0.75;entryDx=0;entryDy=0;" parent="1" source="HUZStoSi5ojUT_41GpKt-37" target="HUZStoSi5ojUT_41GpKt-44" edge="1">
          <mxGeometry relative="1" as="geometry" />
        </mxCell>
        <mxCell id="HUZStoSi5ojUT_41GpKt-37" value="Müşteri Siparişi&lt;br&gt;Var mı?" style="rhombus;whiteSpace=wrap;html=1;" parent="1" vertex="1">
          <mxGeometry x="489.5" y="170" width="107" height="100" as="geometry" />
        </mxCell>
        <mxCell id="HUZStoSi5ojUT_41GpKt-38" style="edgeStyle=orthogonalEdgeStyle;rounded=0;orthogonalLoop=1;jettySize=auto;html=1;entryX=1;entryY=0.75;entryDx=0;entryDy=0;" parent="1" source="HUZStoSi5ojUT_41GpKt-39" target="HUZStoSi5ojUT_41GpKt-44" edge="1">
          <mxGeometry relative="1" as="geometry">
            <Array as="points">
              <mxPoint x="707" y="300" />
              <mxPoint x="400" y="300" />
            </Array>
          </mxGeometry>
        </mxCell>
        <mxCell id="HUZStoSi5ojUT_41GpKt-39" value="Stok Siparişi&amp;nbsp;&lt;br&gt;Var mı?" style="rhombus;whiteSpace=wrap;html=1;" parent="1" vertex="1">
          <mxGeometry x="653.5" y="180" width="107" height="100" as="geometry" />
        </mxCell>
        <mxCell id="HUZStoSi5ojUT_41GpKt-40" style="edgeStyle=orthogonalEdgeStyle;rounded=0;orthogonalLoop=1;jettySize=auto;html=1;entryX=0.5;entryY=0;entryDx=0;entryDy=0;" parent="1" source="HUZStoSi5ojUT_41GpKt-42" target="HUZStoSi5ojUT_41GpKt-37" edge="1">
          <mxGeometry relative="1" as="geometry">
            <Array as="points">
              <mxPoint x="130" y="130" />
              <mxPoint x="537" y="130" />
            </Array>
          </mxGeometry>
        </mxCell>
        <mxCell id="HUZStoSi5ojUT_41GpKt-41" style="edgeStyle=orthogonalEdgeStyle;rounded=0;orthogonalLoop=1;jettySize=auto;html=1;entryX=0.5;entryY=0;entryDx=0;entryDy=0;" parent="1" source="HUZStoSi5ojUT_41GpKt-42" target="HUZStoSi5ojUT_41GpKt-39" edge="1">
          <mxGeometry relative="1" as="geometry">
            <Array as="points">
              <mxPoint x="130" y="130" />
              <mxPoint x="707" y="130" />
            </Array>
          </mxGeometry>
        </mxCell>
        <mxCell id="HUZStoSi5ojUT_41GpKt-42" value="Başla" style="rounded=1;whiteSpace=wrap;html=1;fontSize=12;glass=0;strokeWidth=1;shadow=0;" parent="1" vertex="1">
          <mxGeometry x="70" y="200" width="120" height="40" as="geometry" />
        </mxCell>
        <mxCell id="HUZStoSi5ojUT_41GpKt-43" style="edgeStyle=orthogonalEdgeStyle;rounded=0;orthogonalLoop=1;jettySize=auto;html=1;entryX=0.5;entryY=0;entryDx=0;entryDy=0;" parent="1" source="HUZStoSi5ojUT_41GpKt-44" target="HUZStoSi5ojUT_41GpKt-3" edge="1">
          <mxGeometry relative="1" as="geometry" />
        </mxCell>
        <mxCell id="HUZStoSi5ojUT_41GpKt-44" value="Siparişi Hazırla" style="shape=parallelogram;perimeter=parallelogramPerimeter;whiteSpace=wrap;html=1;fixedSize=1;" parent="1" vertex="1">
          <mxGeometry x="294" y="190" width="120" height="60" as="geometry" />
        </mxCell>
        <mxCell id="HUZStoSi5ojUT_41GpKt-45" value="Hayır" style="text;html=1;strokeColor=none;fillColor=none;align=center;verticalAlign=middle;whiteSpace=wrap;rounded=0;" parent="1" vertex="1">
          <mxGeometry x="250" y="415" width="40" height="20" as="geometry" />
        </mxCell>
      </root>
    </mxGraphModel>
  </diagram>
</mxfile>
